<svg width="1448" height="966" viewBox="0 0 1448 966" fill="none" xmlns="http://www.w3.org/2000/svg">
<rect width="1448" height="966" rx="50" fill="#EEDCFC"/>
<path d="M647.28 118.448C643.013 118.448 639.088 117.445 635.504 115.44C631.963 113.435 629.147 110.661 627.056 107.12C624.965 103.579 623.92 99.5893 623.92 95.152C623.92 90.7147 624.965 86.7253 627.056 83.184C629.147 79.6427 631.963 76.8907 635.504 74.928C639.088 72.9227 643.013 71.92 647.28 71.92C651.547 71.92 655.451 72.9227 658.992 74.928C662.533 76.8907 665.328 79.6427 667.376 83.184C669.467 86.7253 670.512 90.7147 670.512 95.152C670.512 99.5893 669.467 103.579 667.376 107.12C665.328 110.661 662.512 113.435 658.928 115.44C655.387 117.445 651.504 118.448 647.28 118.448ZM647.28 105.2C650.096 105.2 652.272 104.304 653.808 102.512C655.344 100.677 656.112 98.224 656.112 95.152C656.112 92.0373 655.344 89.584 653.808 87.792C652.272 85.9573 650.096 85.04 647.28 85.04C644.421 85.04 642.224 85.9573 640.688 87.792C639.152 89.584 638.384 92.0373 638.384 95.152C638.384 98.224 639.152 100.677 640.688 102.512C642.224 104.304 644.421 105.2 647.28 105.2ZM692.79 118.448C689.163 118.448 685.899 117.701 682.998 116.208C680.096 114.715 677.814 112.581 676.15 109.808C674.528 106.992 673.718 103.707 673.718 99.952C673.718 96.1973 674.528 92.9333 676.15 90.16C677.814 87.344 680.096 85.1893 682.998 83.696C685.899 82.2027 689.163 81.456 692.79 81.456C696.416 81.456 699.68 82.2027 702.582 83.696C705.483 85.1893 707.744 87.344 709.366 90.16C711.03 92.9333 711.862 96.1973 711.862 99.952C711.862 103.707 711.03 106.992 709.366 109.808C707.744 112.581 705.483 114.715 702.582 116.208C699.68 117.701 696.416 118.448 692.79 118.448ZM692.79 106.16C694.112 106.16 695.222 105.648 696.118 104.624C697.014 103.557 697.462 102 697.462 99.952C697.462 97.904 697.014 96.368 696.118 95.344C695.222 94.2773 694.112 93.744 692.79 93.744C691.467 93.744 690.358 94.2773 689.462 95.344C688.566 96.368 688.118 97.904 688.118 99.952C688.118 102 688.544 103.557 689.398 104.624C690.294 105.648 691.424 106.16 692.79 106.16ZM730.533 86.832C731.429 85.168 732.709 83.8667 734.373 82.928C736.08 81.9467 738.106 81.456 740.453 81.456C743.269 81.456 745.808 82.2027 748.069 83.696C750.33 85.1467 752.101 87.28 753.381 90.096C754.704 92.8693 755.365 96.1547 755.365 99.952C755.365 103.749 754.704 107.056 753.381 109.872C752.101 112.645 750.33 114.779 748.069 116.272C745.808 117.723 743.269 118.448 740.453 118.448C738.106 118.448 736.08 117.979 734.373 117.04C732.709 116.059 731.429 114.736 730.533 113.072V135.28H716.325V81.904H730.533V86.832ZM740.965 99.952C740.965 98.032 740.474 96.5387 739.493 95.472C738.512 94.4053 737.253 93.872 735.717 93.872C734.181 93.872 732.922 94.4053 731.941 95.472C730.96 96.5387 730.469 98.032 730.469 99.952C730.469 101.872 730.96 103.365 731.941 104.432C732.922 105.499 734.181 106.032 735.717 106.032C737.253 106.032 738.512 105.499 739.493 104.432C740.474 103.365 740.965 101.872 740.965 99.952ZM775.889 118.448C772.476 118.448 769.446 117.893 766.801 116.784C764.198 115.675 762.129 114.139 760.593 112.176C759.057 110.213 758.182 107.995 757.969 105.52H771.601C771.772 106.587 772.22 107.376 772.945 107.888C773.713 108.4 774.673 108.656 775.825 108.656C776.55 108.656 777.126 108.507 777.553 108.208C777.98 107.867 778.193 107.461 778.193 106.992C778.193 106.181 777.745 105.605 776.849 105.264C775.953 104.923 774.438 104.539 772.305 104.112C769.702 103.6 767.548 103.045 765.841 102.448C764.177 101.851 762.705 100.827 761.425 99.376C760.188 97.9253 759.569 95.92 759.569 93.36C759.569 91.1413 760.145 89.136 761.297 87.344C762.492 85.5093 764.241 84.08 766.545 83.056C768.849 81.9893 771.644 81.456 774.929 81.456C779.793 81.456 783.59 82.6507 786.321 85.04C789.094 87.4293 790.758 90.544 791.313 94.384H778.705C778.492 93.4027 778.044 92.656 777.361 92.144C776.678 91.5893 775.761 91.312 774.609 91.312C773.884 91.312 773.329 91.4613 772.945 91.76C772.561 92.016 772.369 92.4213 772.369 92.976C772.369 93.7013 772.817 94.256 773.713 94.64C774.609 94.9813 776.038 95.344 778.001 95.728C780.604 96.24 782.801 96.816 784.593 97.456C786.385 98.096 787.942 99.2053 789.265 100.784C790.588 102.32 791.249 104.453 791.249 107.184C791.249 109.317 790.63 111.237 789.393 112.944C788.156 114.651 786.364 115.995 784.017 116.976C781.713 117.957 779.004 118.448 775.889 118.448ZM816.024 69.68L814.36 100.016H802.2L800.536 69.68H816.024ZM808.28 118.512C805.805 118.512 803.821 117.851 802.328 116.528C800.834 115.205 800.088 113.541 800.088 111.536C800.088 109.488 800.834 107.803 802.328 106.48C803.821 105.115 805.805 104.432 808.28 104.432C810.712 104.432 812.674 105.115 814.168 106.48C815.661 107.803 816.408 109.488 816.408 111.536C816.408 113.541 815.661 115.205 814.168 116.528C812.674 117.851 810.712 118.512 808.28 118.512Z" fill="black"/>
<g clip-path="url(#clip0_303_83)">
<path d="M548.973 606.077H504.503V684.125H396.682V606.077H236V526.35L403.814 280.875H504.503V524.671H548.973V606.077ZM396.682 524.671V477.674C396.682 468.862 397.102 457.113 397.521 442.007C398.36 426.901 398.78 419.348 399.199 418.508H396.262C389.969 432.775 382.837 445.783 374.866 458.372L330.395 524.671H396.682Z" fill="#DBAEFF"/>
<path d="M868.659 483.129C868.659 554.464 856.493 606.916 832.999 640.066C809.085 673.215 772.586 690 723.08 690C674.834 690 638.754 672.796 614.001 637.968C589.668 603.14 577.502 551.527 577.502 483.129C577.502 411.375 589.249 358.923 613.582 325.354C637.495 291.785 673.995 275 723.5 275C771.327 275 807.827 292.624 832.16 327.452C856.493 362.28 868.659 413.893 868.659 483.129ZM685.742 483.129C685.742 528.868 688.679 560.339 694.133 577.123C700.006 594.328 709.236 602.72 722.661 602.72C736.086 602.72 745.735 593.908 751.609 576.284C757.063 558.66 760 527.609 760 483.129C760 438.231 757.063 407.179 751.609 389.135C745.735 371.092 736.506 362.28 723.08 362.28C709.655 362.28 700.006 371.092 694.552 388.296C688.679 405.501 685.742 436.972 685.742 483.129Z" fill="#DBAEFF"/>
<path d="M1211 606.077H1166.53V684.125H1058.71V606.077H898.027V526.35L1065.84 280.875H1166.53V524.671H1211V606.077ZM1059.13 524.671V477.674C1059.13 468.862 1059.55 457.113 1059.97 442.007C1060.81 426.901 1061.23 419.348 1061.65 418.508H1058.71C1052.42 432.775 1045.28 445.783 1037.31 458.372L992.422 525.091H1059.13V524.671Z" fill="#DBAEFF"/>
</g>
<path d="M708.52 815.12C708.056 814.144 707.384 813.392 706.504 812.864C705.624 812.32 704.6 812.048 703.432 812.048C702.264 812.048 701.208 812.32 700.264 812.864C699.336 813.392 698.6 814.16 698.056 815.168C697.528 816.16 697.264 817.312 697.264 818.624C697.264 819.936 697.528 821.088 698.056 822.08C698.6 823.072 699.336 823.84 700.264 824.384C701.208 824.912 702.264 825.176 703.432 825.176C705.064 825.176 706.408 824.688 707.464 823.712C708.52 822.736 709.136 821.416 709.312 819.752H702.64V817.976H711.64V819.656C711.512 821.032 711.08 822.296 710.344 823.448C709.608 824.584 708.64 825.488 707.44 826.16C706.24 826.816 704.904 827.144 703.432 827.144C701.88 827.144 700.464 826.784 699.184 826.064C697.904 825.328 696.888 824.312 696.136 823.016C695.4 821.72 695.032 820.256 695.032 818.624C695.032 816.992 695.4 815.528 696.136 814.232C696.888 812.92 697.904 811.904 699.184 811.184C700.464 810.448 701.88 810.08 703.432 810.08C705.208 810.08 706.776 810.52 708.136 811.4C709.512 812.28 710.512 813.52 711.136 815.12H708.52ZM720.264 827.216C719.032 827.216 717.912 826.936 716.904 826.376C715.912 825.816 715.128 825.024 714.552 824C713.992 822.96 713.712 821.76 713.712 820.4C713.712 819.056 714 817.872 714.576 816.848C715.168 815.808 715.968 815.016 716.976 814.472C717.984 813.912 719.112 813.632 720.36 813.632C721.608 813.632 722.736 813.912 723.744 814.472C724.752 815.016 725.544 815.8 726.12 816.824C726.712 817.848 727.008 819.04 727.008 820.4C727.008 821.76 726.704 822.96 726.096 824C725.504 825.024 724.696 825.816 723.672 826.376C722.648 826.936 721.512 827.216 720.264 827.216ZM720.264 825.296C721.048 825.296 721.784 825.112 722.472 824.744C723.16 824.376 723.712 823.824 724.128 823.088C724.56 822.352 724.776 821.456 724.776 820.4C724.776 819.344 724.568 818.448 724.152 817.712C723.736 816.976 723.192 816.432 722.52 816.08C721.848 815.712 721.12 815.528 720.336 815.528C719.536 815.528 718.8 815.712 718.128 816.08C717.472 816.432 716.944 816.976 716.544 817.712C716.144 818.448 715.944 819.344 715.944 820.4C715.944 821.472 716.136 822.376 716.52 823.112C716.92 823.848 717.448 824.4 718.104 824.768C718.76 825.12 719.48 825.296 720.264 825.296ZM749.166 810.272V827H746.982V819.416H738.462V827H736.278V810.272H738.462V817.616H746.982V810.272H749.166ZM758.631 827.216C757.399 827.216 756.279 826.936 755.271 826.376C754.279 825.816 753.495 825.024 752.919 824C752.359 822.96 752.079 821.76 752.079 820.4C752.079 819.056 752.367 817.872 752.943 816.848C753.535 815.808 754.335 815.016 755.343 814.472C756.351 813.912 757.479 813.632 758.727 813.632C759.975 813.632 761.103 813.912 762.111 814.472C763.119 815.016 763.911 815.8 764.487 816.824C765.079 817.848 765.375 819.04 765.375 820.4C765.375 821.76 765.071 822.96 764.463 824C763.871 825.024 763.063 825.816 762.039 826.376C761.015 826.936 759.879 827.216 758.631 827.216ZM758.631 825.296C759.415 825.296 760.151 825.112 760.839 824.744C761.527 824.376 762.079 823.824 762.495 823.088C762.927 822.352 763.143 821.456 763.143 820.4C763.143 819.344 762.935 818.448 762.519 817.712C762.103 816.976 761.559 816.432 760.887 816.08C760.215 815.712 759.487 815.528 758.703 815.528C757.903 815.528 757.167 815.712 756.495 816.08C755.839 816.432 755.311 816.976 754.911 817.712C754.511 818.448 754.311 819.344 754.311 820.4C754.311 821.472 754.503 822.376 754.887 823.112C755.287 823.848 755.815 824.4 756.471 824.768C757.127 825.12 757.847 825.296 758.631 825.296ZM784.062 813.608C785.086 813.608 785.998 813.824 786.798 814.256C787.598 814.672 788.23 815.304 788.694 816.152C789.158 817 789.39 818.032 789.39 819.248V827H787.23V819.56C787.23 818.248 786.902 817.248 786.246 816.56C785.606 815.856 784.734 815.504 783.63 815.504C782.494 815.504 781.59 815.872 780.918 816.608C780.246 817.328 779.91 818.376 779.91 819.752V827H777.75V819.56C777.75 818.248 777.422 817.248 776.766 816.56C776.126 815.856 775.254 815.504 774.15 815.504C773.014 815.504 772.11 815.872 771.438 816.608C770.766 817.328 770.43 818.376 770.43 819.752V827H768.246V813.848H770.43V815.744C770.862 815.056 771.438 814.528 772.158 814.16C772.894 813.792 773.702 813.608 774.582 813.608C775.686 813.608 776.662 813.856 777.51 814.352C778.358 814.848 778.99 815.576 779.406 816.536C779.774 815.608 780.382 814.888 781.23 814.376C782.078 813.864 783.022 813.608 784.062 813.608ZM804.973 819.92C804.973 820.336 804.949 820.776 804.901 821.24H794.389C794.469 822.536 794.909 823.552 795.709 824.288C796.525 825.008 797.509 825.368 798.661 825.368C799.605 825.368 800.389 825.152 801.013 824.72C801.653 824.272 802.101 823.68 802.357 822.944H804.709C804.357 824.208 803.653 825.24 802.597 826.04C801.541 826.824 800.229 827.216 798.661 827.216C797.413 827.216 796.293 826.936 795.301 826.376C794.325 825.816 793.557 825.024 792.997 824C792.437 822.96 792.157 821.76 792.157 820.4C792.157 819.04 792.429 817.848 792.973 816.824C793.517 815.8 794.277 815.016 795.253 814.472C796.245 813.912 797.381 813.632 798.661 813.632C799.909 813.632 801.013 813.904 801.973 814.448C802.933 814.992 803.669 815.744 804.181 816.704C804.709 817.648 804.973 818.72 804.973 819.92ZM802.717 819.464C802.717 818.632 802.533 817.92 802.165 817.328C801.797 816.72 801.293 816.264 800.653 815.96C800.029 815.64 799.333 815.48 798.565 815.48C797.461 815.48 796.517 815.832 795.733 816.536C794.965 817.24 794.525 818.216 794.413 819.464H802.717Z" fill="black"/>
<path d="M657.198 815.948L675.643 815.948C677.94 815.948 679.802 817.81 679.802 820.107L679.802 821.632C679.802 823.929 677.94 825.792 675.643 825.792H661.208" stroke="black" stroke-width="2.08134" stroke-linejoin="round"/>
<path d="M660.844 811.573C659.135 813.281 658.177 814.239 656.469 815.948L660.844 820.323" stroke="black" stroke-width="2.08134" stroke-linejoin="round"/>
<rect x="656" y="841" width="150" height="2" fill="black"/>
<path d="M583.608 153.152V156.44H579.144V170H575.04V156.44H570.576V153.152H583.608ZM593.9 156.464C595.436 156.464 596.668 156.976 597.596 158C598.524 159.008 598.988 160.4 598.988 162.176V170H594.908V162.728C594.908 161.832 594.676 161.136 594.212 160.64C593.748 160.144 593.124 159.896 592.34 159.896C591.556 159.896 590.932 160.144 590.468 160.64C590.004 161.136 589.772 161.832 589.772 162.728V170H585.668V152.24H589.772V158.408C590.188 157.816 590.756 157.344 591.476 156.992C592.196 156.64 593.004 156.464 593.9 156.464ZM603.904 155.216C603.184 155.216 602.592 155.008 602.128 154.592C601.68 154.16 601.456 153.632 601.456 153.008C601.456 152.368 601.68 151.84 602.128 151.424C602.592 150.992 603.184 150.776 603.904 150.776C604.608 150.776 605.184 150.992 605.632 151.424C606.096 151.84 606.328 152.368 606.328 153.008C606.328 153.632 606.096 154.16 605.632 154.592C605.184 155.008 604.608 155.216 603.904 155.216ZM605.944 156.608V170H601.84V156.608H605.944ZM614.366 170.192C613.198 170.192 612.158 169.992 611.246 169.592C610.334 169.192 609.614 168.648 609.086 167.96C608.558 167.256 608.262 166.472 608.198 165.608H612.254C612.302 166.072 612.518 166.448 612.902 166.736C613.286 167.024 613.758 167.168 614.318 167.168C614.83 167.168 615.222 167.072 615.494 166.88C615.782 166.672 615.926 166.408 615.926 166.088C615.926 165.704 615.726 165.424 615.326 165.248C614.926 165.056 614.278 164.848 613.382 164.624C612.422 164.4 611.622 164.168 610.982 163.928C610.342 163.672 609.79 163.28 609.326 162.752C608.862 162.208 608.63 161.48 608.63 160.568C608.63 159.8 608.838 159.104 609.254 158.48C609.686 157.84 610.31 157.336 611.126 156.968C611.958 156.6 612.942 156.416 614.078 156.416C615.758 156.416 617.078 156.832 618.038 157.664C619.014 158.496 619.574 159.6 619.718 160.976H615.926C615.862 160.512 615.654 160.144 615.302 159.872C614.966 159.6 614.518 159.464 613.958 159.464C613.478 159.464 613.11 159.56 612.854 159.752C612.598 159.928 612.47 160.176 612.47 160.496C612.47 160.88 612.67 161.168 613.07 161.36C613.486 161.552 614.126 161.744 614.99 161.936C615.982 162.192 616.79 162.448 617.414 162.704C618.038 162.944 618.582 163.344 619.046 163.904C619.526 164.448 619.774 165.184 619.79 166.112C619.79 166.896 619.566 167.6 619.118 168.224C618.686 168.832 618.054 169.312 617.222 169.664C616.406 170.016 615.454 170.192 614.366 170.192ZM631.49 158.504C631.89 157.88 632.442 157.376 633.146 156.992C633.85 156.608 634.674 156.416 635.618 156.416C636.722 156.416 637.722 156.696 638.618 157.256C639.514 157.816 640.218 158.616 640.73 159.656C641.258 160.696 641.522 161.904 641.522 163.28C641.522 164.656 641.258 165.872 640.73 166.928C640.218 167.968 639.514 168.776 638.618 169.352C637.722 169.912 636.722 170.192 635.618 170.192C634.69 170.192 633.866 170 633.146 169.616C632.442 169.232 631.89 168.736 631.49 168.128V176.384H627.386V156.608H631.49V158.504ZM637.346 163.28C637.346 162.256 637.058 161.456 636.482 160.88C635.922 160.288 635.226 159.992 634.394 159.992C633.578 159.992 632.882 160.288 632.306 160.88C631.746 161.472 631.466 162.28 631.466 163.304C631.466 164.328 631.746 165.136 632.306 165.728C632.882 166.32 633.578 166.616 634.394 166.616C635.21 166.616 635.906 166.32 636.482 165.728C637.058 165.12 637.346 164.304 637.346 163.28ZM642.86 163.28C642.86 161.904 643.116 160.696 643.628 159.656C644.156 158.616 644.868 157.816 645.764 157.256C646.66 156.696 647.66 156.416 648.764 156.416C649.708 156.416 650.532 156.608 651.236 156.992C651.956 157.376 652.508 157.88 652.892 158.504V156.608H656.996V170H652.892V168.104C652.492 168.728 651.932 169.232 651.212 169.616C650.508 170 649.684 170.192 648.74 170.192C647.652 170.192 646.66 169.912 645.764 169.352C644.868 168.776 644.156 167.968 643.628 166.928C643.116 165.872 642.86 164.656 642.86 163.28ZM652.892 163.304C652.892 162.28 652.604 161.472 652.028 160.88C651.468 160.288 650.78 159.992 649.964 159.992C649.148 159.992 648.452 160.288 647.876 160.88C647.316 161.456 647.036 162.256 647.036 163.28C647.036 164.304 647.316 165.12 647.876 165.728C648.452 166.32 649.148 166.616 649.964 166.616C650.78 166.616 651.468 166.32 652.028 165.728C652.604 165.136 652.892 164.328 652.892 163.304ZM665.053 156.416C665.997 156.416 666.821 156.608 667.525 156.992C668.245 157.376 668.797 157.88 669.181 158.504V156.608H673.285V169.976C673.285 171.208 673.037 172.32 672.541 173.312C672.061 174.32 671.317 175.12 670.309 175.712C669.317 176.304 668.077 176.6 666.589 176.6C664.605 176.6 662.997 176.128 661.765 175.184C660.533 174.256 659.829 172.992 659.653 171.392H663.709C663.837 171.904 664.141 172.304 664.621 172.592C665.101 172.896 665.693 173.048 666.397 173.048C667.245 173.048 667.917 172.8 668.413 172.304C668.925 171.824 669.181 171.048 669.181 169.976V168.08C668.781 168.704 668.229 169.216 667.525 169.616C666.821 170 665.997 170.192 665.053 170.192C663.949 170.192 662.949 169.912 662.053 169.352C661.157 168.776 660.445 167.968 659.917 166.928C659.405 165.872 659.149 164.656 659.149 163.28C659.149 161.904 659.405 160.696 659.917 159.656C660.445 158.616 661.157 157.816 662.053 157.256C662.949 156.696 663.949 156.416 665.053 156.416ZM669.181 163.304C669.181 162.28 668.893 161.472 668.317 160.88C667.757 160.288 667.069 159.992 666.253 159.992C665.437 159.992 664.741 160.288 664.165 160.88C663.605 161.456 663.325 162.256 663.325 163.28C663.325 164.304 663.605 165.12 664.165 165.728C664.741 166.32 665.437 166.616 666.253 166.616C667.069 166.616 667.757 166.32 668.317 165.728C668.893 165.136 669.181 164.328 669.181 163.304ZM688.878 163.088C688.878 163.472 688.854 163.872 688.806 164.288H679.518C679.582 165.12 679.846 165.76 680.31 166.208C680.79 166.64 681.374 166.856 682.062 166.856C683.086 166.856 683.798 166.424 684.198 165.56H688.566C688.342 166.44 687.934 167.232 687.342 167.936C686.766 168.64 686.038 169.192 685.158 169.592C684.278 169.992 683.294 170.192 682.206 170.192C680.894 170.192 679.726 169.912 678.702 169.352C677.678 168.792 676.878 167.992 676.302 166.952C675.726 165.912 675.438 164.696 675.438 163.304C675.438 161.912 675.718 160.696 676.278 159.656C676.854 158.616 677.654 157.816 678.678 157.256C679.702 156.696 680.878 156.416 682.206 156.416C683.502 156.416 684.654 156.688 685.662 157.232C686.67 157.776 687.454 158.552 688.014 159.56C688.59 160.568 688.878 161.744 688.878 163.088ZM684.678 162.008C684.678 161.304 684.438 160.744 683.958 160.328C683.478 159.912 682.878 159.704 682.158 159.704C681.47 159.704 680.886 159.904 680.406 160.304C679.942 160.704 679.654 161.272 679.542 162.008H684.678ZM698.193 155.216C697.473 155.216 696.881 155.008 696.417 154.592C695.969 154.16 695.745 153.632 695.745 153.008C695.745 152.368 695.969 151.84 696.417 151.424C696.881 150.992 697.473 150.776 698.193 150.776C698.897 150.776 699.473 150.992 699.921 151.424C700.385 151.84 700.617 152.368 700.617 153.008C700.617 153.632 700.385 154.16 699.921 154.592C699.473 155.008 698.897 155.216 698.193 155.216ZM700.233 156.608V170H696.129V156.608H700.233ZM708.655 170.192C707.487 170.192 706.447 169.992 705.535 169.592C704.623 169.192 703.903 168.648 703.375 167.96C702.847 167.256 702.551 166.472 702.487 165.608H706.543C706.591 166.072 706.807 166.448 707.191 166.736C707.575 167.024 708.047 167.168 708.607 167.168C709.119 167.168 709.511 167.072 709.783 166.88C710.071 166.672 710.215 166.408 710.215 166.088C710.215 165.704 710.015 165.424 709.615 165.248C709.215 165.056 708.567 164.848 707.671 164.624C706.711 164.4 705.911 164.168 705.271 163.928C704.631 163.672 704.079 163.28 703.615 162.752C703.151 162.208 702.919 161.48 702.919 160.568C702.919 159.8 703.127 159.104 703.543 158.48C703.975 157.84 704.599 157.336 705.415 156.968C706.247 156.6 707.231 156.416 708.367 156.416C710.047 156.416 711.367 156.832 712.327 157.664C713.303 158.496 713.863 159.6 714.007 160.976H710.215C710.151 160.512 709.943 160.144 709.591 159.872C709.255 159.6 708.807 159.464 708.247 159.464C707.767 159.464 707.399 159.56 707.143 159.752C706.887 159.928 706.759 160.176 706.759 160.496C706.759 160.88 706.959 161.168 707.359 161.36C707.775 161.552 708.415 161.744 709.279 161.936C710.271 162.192 711.079 162.448 711.703 162.704C712.327 162.944 712.871 163.344 713.335 163.904C713.815 164.448 714.063 165.184 714.079 166.112C714.079 166.896 713.855 167.6 713.407 168.224C712.975 168.832 712.343 169.312 711.511 169.664C710.695 170.016 709.743 170.192 708.655 170.192ZM729.836 156.464C731.404 156.464 732.652 156.976 733.58 158C734.524 159.008 734.996 160.4 734.996 162.176V170H730.916V162.728C730.916 161.832 730.684 161.136 730.22 160.64C729.756 160.144 729.132 159.896 728.348 159.896C727.564 159.896 726.94 160.144 726.476 160.64C726.012 161.136 725.78 161.832 725.78 162.728V170H721.676V156.608H725.78V158.384C726.196 157.792 726.756 157.328 727.46 156.992C728.164 156.64 728.956 156.464 729.836 156.464ZM743.943 170.192C742.631 170.192 741.447 169.912 740.391 169.352C739.351 168.792 738.527 167.992 737.919 166.952C737.327 165.912 737.031 164.696 737.031 163.304C737.031 161.928 737.335 160.72 737.943 159.68C738.551 158.624 739.383 157.816 740.439 157.256C741.495 156.696 742.679 156.416 743.991 156.416C745.303 156.416 746.487 156.696 747.543 157.256C748.599 157.816 749.431 158.624 750.039 159.68C750.647 160.72 750.951 161.928 750.951 163.304C750.951 164.68 750.639 165.896 750.015 166.952C749.407 167.992 748.567 168.792 747.495 169.352C746.439 169.912 745.255 170.192 743.943 170.192ZM743.943 166.64C744.727 166.64 745.391 166.352 745.935 165.776C746.495 165.2 746.775 164.376 746.775 163.304C746.775 162.232 746.503 161.408 745.959 160.832C745.431 160.256 744.775 159.968 743.991 159.968C743.191 159.968 742.527 160.256 741.999 160.832C741.471 161.392 741.207 162.216 741.207 163.304C741.207 164.376 741.463 165.2 741.975 165.776C742.503 166.352 743.159 166.64 743.943 166.64ZM760.593 166.52V170H758.505C757.017 170 755.857 169.64 755.025 168.92C754.193 168.184 753.777 166.992 753.777 165.344V160.016H752.145V156.608H753.777V153.344H757.881V156.608H760.569V160.016H757.881V165.392C757.881 165.792 757.977 166.08 758.169 166.256C758.361 166.432 758.681 166.52 759.129 166.52H760.593ZM767.149 163.28C767.149 161.904 767.405 160.696 767.917 159.656C768.445 158.616 769.157 157.816 770.053 157.256C770.949 156.696 771.949 156.416 773.053 156.416C773.997 156.416 774.821 156.608 775.525 156.992C776.245 157.376 776.797 157.88 777.181 158.504V156.608H781.285V170H777.181V168.104C776.781 168.728 776.221 169.232 775.501 169.616C774.797 170 773.973 170.192 773.029 170.192C771.941 170.192 770.949 169.912 770.053 169.352C769.157 168.776 768.445 167.968 767.917 166.928C767.405 165.872 767.149 164.656 767.149 163.28ZM777.181 163.304C777.181 162.28 776.893 161.472 776.317 160.88C775.757 160.288 775.069 159.992 774.253 159.992C773.437 159.992 772.741 160.288 772.165 160.88C771.605 161.456 771.325 162.256 771.325 163.28C771.325 164.304 771.605 165.12 772.165 165.728C772.741 166.32 773.437 166.616 774.253 166.616C775.069 166.616 775.757 166.32 776.317 165.728C776.893 165.136 777.181 164.328 777.181 163.304ZM790.278 166.16L793.182 156.608H797.55L792.798 170H787.734L782.982 156.608H787.374L790.278 166.16ZM798.461 163.28C798.461 161.904 798.717 160.696 799.229 159.656C799.757 158.616 800.469 157.816 801.365 157.256C802.261 156.696 803.261 156.416 804.365 156.416C805.309 156.416 806.133 156.608 806.837 156.992C807.557 157.376 808.109 157.88 808.493 158.504V156.608H812.597V170H808.493V168.104C808.093 168.728 807.533 169.232 806.813 169.616C806.109 170 805.285 170.192 804.341 170.192C803.253 170.192 802.261 169.912 801.365 169.352C800.469 168.776 799.757 167.968 799.229 166.928C798.717 165.872 798.461 164.656 798.461 163.28ZM808.493 163.304C808.493 162.28 808.205 161.472 807.629 160.88C807.069 160.288 806.381 159.992 805.565 159.992C804.749 159.992 804.053 160.288 803.477 160.88C802.917 161.456 802.637 162.256 802.637 163.28C802.637 164.304 802.917 165.12 803.477 165.728C804.053 166.32 804.749 166.616 805.565 166.616C806.381 166.616 807.069 166.32 807.629 165.728C808.205 165.136 808.493 164.328 808.493 163.304ZM817.63 155.216C816.91 155.216 816.318 155.008 815.854 154.592C815.406 154.16 815.182 153.632 815.182 153.008C815.182 152.368 815.406 151.84 815.854 151.424C816.318 150.992 816.91 150.776 817.63 150.776C818.334 150.776 818.91 150.992 819.358 151.424C819.822 151.84 820.054 152.368 820.054 153.008C820.054 153.632 819.822 154.16 819.358 154.592C818.91 155.008 818.334 155.216 817.63 155.216ZM819.67 156.608V170H815.566V156.608H819.67ZM826.748 152.24V170H822.644V152.24H826.748ZM828.906 163.28C828.906 161.904 829.162 160.696 829.674 159.656C830.202 158.616 830.914 157.816 831.81 157.256C832.706 156.696 833.706 156.416 834.81 156.416C835.754 156.416 836.578 156.608 837.282 156.992C838.002 157.376 838.554 157.88 838.938 158.504V156.608H843.042V170H838.938V168.104C838.538 168.728 837.978 169.232 837.258 169.616C836.554 170 835.73 170.192 834.786 170.192C833.698 170.192 832.706 169.912 831.81 169.352C830.914 168.776 830.202 167.968 829.674 166.928C829.162 165.872 828.906 164.656 828.906 163.28ZM838.938 163.304C838.938 162.28 838.65 161.472 838.074 160.88C837.514 160.288 836.826 159.992 836.01 159.992C835.194 159.992 834.498 160.288 833.922 160.88C833.362 161.456 833.082 162.256 833.082 163.28C833.082 164.304 833.362 165.12 833.922 165.728C834.498 166.32 835.194 166.616 836.01 166.616C836.826 166.616 837.514 166.32 838.074 165.728C838.65 165.136 838.938 164.328 838.938 163.304ZM850.115 158.504C850.499 157.88 851.051 157.376 851.771 156.992C852.491 156.608 853.315 156.416 854.243 156.416C855.347 156.416 856.347 156.696 857.243 157.256C858.139 157.816 858.843 158.616 859.355 159.656C859.883 160.696 860.147 161.904 860.147 163.28C860.147 164.656 859.883 165.872 859.355 166.928C858.843 167.968 858.139 168.776 857.243 169.352C856.347 169.912 855.347 170.192 854.243 170.192C853.299 170.192 852.475 170.008 851.771 169.64C851.067 169.256 850.515 168.752 850.115 168.128V170H846.011V152.24H850.115V158.504ZM855.971 163.28C855.971 162.256 855.683 161.456 855.107 160.88C854.547 160.288 853.851 159.992 853.019 159.992C852.203 159.992 851.507 160.288 850.931 160.88C850.371 161.472 850.091 162.28 850.091 163.304C850.091 164.328 850.371 165.136 850.931 165.728C851.507 166.32 852.203 166.616 853.019 166.616C853.835 166.616 854.531 166.32 855.107 165.728C855.683 165.12 855.971 164.304 855.971 163.28ZM866.405 152.24V170H862.301V152.24H866.405ZM882.003 163.088C882.003 163.472 881.979 163.872 881.931 164.288H872.643C872.707 165.12 872.971 165.76 873.435 166.208C873.915 166.64 874.499 166.856 875.187 166.856C876.211 166.856 876.923 166.424 877.323 165.56H881.691C881.467 166.44 881.059 167.232 880.467 167.936C879.891 168.64 879.163 169.192 878.283 169.592C877.403 169.992 876.419 170.192 875.331 170.192C874.019 170.192 872.851 169.912 871.827 169.352C870.803 168.792 870.003 167.992 869.427 166.952C868.851 165.912 868.563 164.696 868.563 163.304C868.563 161.912 868.843 160.696 869.403 159.656C869.979 158.616 870.779 157.816 871.803 157.256C872.827 156.696 874.003 156.416 875.331 156.416C876.627 156.416 877.779 156.688 878.787 157.232C879.795 157.776 880.579 158.552 881.139 159.56C881.715 160.568 882.003 161.744 882.003 163.088ZM877.803 162.008C877.803 161.304 877.563 160.744 877.083 160.328C876.603 159.912 876.003 159.704 875.283 159.704C874.595 159.704 874.011 159.904 873.531 160.304C873.067 160.704 872.779 161.272 872.667 162.008H877.803Z" fill="black"/>
<defs>
<clipPath id="clip0_303_83">
<rect width="975" height="415" fill="white" transform="translate(236 275)"/>
</clipPath>
</defs>
</svg>
