<svg width="659" height="310" viewBox="0 0 659 310" fill="none" xmlns="http://www.w3.org/2000/svg">
<path d="M0 13.3C0 5.9546 5.95461 0 13.3 0H645.7C653.045 0 659 5.95461 659 13.3V310H0V13.3Z" fill="url(#paint0_linear_303_275)"/>
<path d="M202.655 136.426V132.363H214.54V132.58C214.54 137.593 213.114 141.482 210.261 144.248C207.726 146.697 204.456 147.921 200.451 147.921C196.447 147.921 193.177 146.61 190.641 143.988C187.789 141.05 186.363 137.42 186.363 133.098C186.363 130.937 186.752 128.921 187.53 127.048C188.308 125.146 189.316 123.576 190.555 122.337C191.852 121.041 193.436 120.004 195.309 119.226C197.21 118.419 199.241 118.016 201.402 118.016C204.254 118.016 206.761 118.621 208.922 119.831C210.91 120.955 212.465 122.395 213.589 124.152L210.088 126.616C209.051 125.175 207.87 124.08 206.545 123.331C205.133 122.496 203.433 122.078 201.445 122.078C198.363 122.078 195.827 123.072 193.839 125.06C192.889 126.011 192.14 127.206 191.592 128.647C191.045 130.087 190.771 131.586 190.771 133.141C190.771 136.224 191.765 138.831 193.753 140.963C195.568 142.894 197.974 143.859 200.97 143.859C203.534 143.859 205.681 143.009 207.409 141.309C208.821 139.926 209.628 138.298 209.829 136.426H202.655ZM219.382 131.413C221.255 129.598 223.574 128.69 226.34 128.69C229.105 128.69 231.41 129.598 233.254 131.413C235.127 133.199 236.063 135.489 236.063 138.284C236.063 141.05 235.127 143.355 233.254 145.198C231.41 147.014 229.105 147.921 226.34 147.921C223.574 147.921 221.255 147.014 219.382 145.198C217.538 143.355 216.616 141.05 216.616 138.284C216.616 135.489 217.538 133.199 219.382 131.413ZM222.407 142.562C223.387 143.599 224.697 144.118 226.34 144.118C227.982 144.118 229.293 143.599 230.272 142.562C231.252 141.496 231.742 140.085 231.742 138.327C231.742 136.397 231.209 134.942 230.143 133.962C229.105 132.983 227.838 132.493 226.34 132.493C224.841 132.493 223.559 132.983 222.493 133.962C221.456 134.942 220.938 136.397 220.938 138.327C220.938 140.085 221.427 141.496 222.407 142.562ZM240.569 131.413C242.442 129.598 244.761 128.69 247.527 128.69C250.293 128.69 252.598 129.598 254.442 131.413C256.314 133.199 257.251 135.489 257.251 138.284C257.251 141.05 256.314 143.355 254.442 145.198C252.598 147.014 250.293 147.921 247.527 147.921C244.761 147.921 242.442 147.014 240.569 145.198C238.725 143.355 237.804 141.05 237.804 138.284C237.804 135.489 238.725 133.199 240.569 131.413ZM243.594 142.562C244.574 143.599 245.885 144.118 247.527 144.118C249.169 144.118 250.48 143.599 251.46 142.562C252.439 141.496 252.929 140.085 252.929 138.327C252.929 136.397 252.396 134.942 251.33 133.962C250.293 132.983 249.025 132.493 247.527 132.493C246.029 132.493 244.747 132.983 243.681 133.962C242.644 134.942 242.125 136.397 242.125 138.327C242.125 140.085 242.615 141.496 243.594 142.562ZM273.252 131.153V129.165H277.487V145.89C277.487 148.252 277.286 150.168 276.882 151.638C276.479 153.136 275.687 154.375 274.505 155.354C272.921 156.651 270.904 157.299 268.455 157.299C265.978 157.299 263.99 156.55 262.491 155.052C261.022 153.582 260.129 151.695 259.812 149.39H263.918C264.119 150.543 264.566 151.494 265.257 152.243C266.035 153.078 267.13 153.496 268.542 153.496C269.953 153.496 271.063 153.093 271.869 152.286C272.791 151.393 273.252 149.866 273.252 147.705V145.328C271.898 147.057 270.054 147.921 267.721 147.921C265.272 147.921 263.269 147.1 261.714 145.458C259.899 143.556 258.991 141.151 258.991 138.241C258.991 135.331 259.884 132.983 261.67 131.197C263.313 129.526 265.373 128.69 267.85 128.69C270.069 128.69 271.869 129.511 273.252 131.153ZM268.369 132.493C267.072 132.493 266.006 132.896 265.171 133.703C263.932 134.856 263.313 136.397 263.313 138.327C263.313 140.315 263.918 141.842 265.128 142.908C266.05 143.715 267.13 144.118 268.369 144.118C269.781 144.118 270.962 143.628 271.912 142.649C272.978 141.496 273.511 140.07 273.511 138.37C273.511 136.411 272.935 134.884 271.783 133.79C270.919 132.925 269.781 132.493 268.369 132.493ZM281.129 115.855H285.364V147.359H281.129V115.855ZM301.729 141.223L305.273 143.211C304.466 144.651 303.443 145.76 302.205 146.538C300.793 147.46 299.007 147.921 296.846 147.921C294.311 147.921 292.265 147.143 290.709 145.587C288.923 143.801 288.03 141.482 288.03 138.63C288.03 135.633 288.995 133.141 290.925 131.153C292.568 129.511 294.599 128.69 297.019 128.69C299.381 128.69 301.326 129.482 302.853 131.067C304.553 132.824 305.403 135.389 305.403 138.759V139.278H292.351C292.467 140.805 292.985 142.029 293.907 142.951C294.685 143.729 295.765 144.118 297.148 144.118C298.272 144.118 299.237 143.816 300.044 143.211C300.706 142.692 301.268 142.029 301.729 141.223ZM292.654 135.821H301.081C300.908 134.812 300.476 133.991 299.785 133.357C299.035 132.666 298.085 132.32 296.932 132.32C295.722 132.32 294.728 132.709 293.95 133.487C293.317 134.063 292.884 134.841 292.654 135.821ZM317.236 118.534H321.644V135.907C321.644 138.154 321.946 139.811 322.551 140.877C323.041 141.684 323.761 142.389 324.712 142.994C325.663 143.571 326.729 143.859 327.91 143.859C329.091 143.859 330.157 143.571 331.108 142.994C332.059 142.389 332.779 141.684 333.269 140.877C333.874 139.811 334.176 138.154 334.176 135.907V118.534H338.584V137.074C338.584 140.099 337.691 142.591 335.905 144.55C333.831 146.797 331.166 147.921 327.91 147.921C324.655 147.921 321.99 146.797 319.915 144.55C318.129 142.591 317.236 140.099 317.236 137.074V118.534ZM340.758 147.359L349.833 132.32L341.882 118.534H346.808L352.426 128.301L358.174 118.534H363.1L354.803 132.32L363.489 147.359H358.563L352.253 136.339L345.685 147.359H340.758ZM386.536 131.283V115.855H390.771V147.359H386.536V145.458C385.124 147.1 383.309 147.921 381.091 147.921C378.412 147.921 376.265 146.97 374.652 145.069C373.067 143.167 372.275 140.891 372.275 138.241C372.275 135.36 373.125 133.055 374.825 131.326C376.553 129.569 378.657 128.69 381.134 128.69C383.41 128.69 385.211 129.554 386.536 131.283ZM381.653 132.493C380.155 132.493 378.93 133.055 377.979 134.178C377.058 135.302 376.597 136.685 376.597 138.327C376.597 139.941 377.058 141.309 377.979 142.433C378.93 143.556 380.155 144.118 381.653 144.118C383.093 144.118 384.303 143.614 385.283 142.606C386.291 141.597 386.795 140.185 386.795 138.37C386.795 136.498 386.291 135.057 385.283 134.049C384.303 133.012 383.093 132.493 381.653 132.493ZM407.162 141.223L410.706 143.211C409.899 144.651 408.876 145.76 407.637 146.538C406.226 147.46 404.439 147.921 402.278 147.921C399.743 147.921 397.698 147.143 396.142 145.587C394.356 143.801 393.463 141.482 393.463 138.63C393.463 135.633 394.428 133.141 396.358 131.153C398 129.511 400.031 128.69 402.451 128.69C404.814 128.69 406.759 129.482 408.285 131.067C409.985 132.824 410.835 135.389 410.835 138.759V139.278H397.784C397.899 140.805 398.418 142.029 399.34 142.951C400.118 143.729 401.198 144.118 402.581 144.118C403.705 144.118 404.67 143.816 405.476 143.211C406.139 142.692 406.701 142.029 407.162 141.223ZM398.087 135.821H406.514C406.341 134.812 405.909 133.991 405.217 133.357C404.468 132.666 403.517 132.32 402.365 132.32C401.155 132.32 400.161 132.709 399.383 133.487C398.749 134.063 398.317 134.841 398.087 135.821ZM424.639 131.888L421.484 133.962C420.851 132.925 419.986 132.407 418.891 132.407C418.344 132.407 417.912 132.565 417.595 132.882C417.336 133.141 417.206 133.458 417.206 133.833C417.206 134.265 417.408 134.611 417.811 134.87C417.898 134.928 417.984 134.985 418.07 135.043C418.157 135.072 418.315 135.144 418.546 135.259C418.776 135.374 419.007 135.489 419.237 135.605L421.398 136.685C422.608 137.29 423.458 137.852 423.948 138.37C424.841 139.264 425.287 140.387 425.287 141.741C425.287 143.355 424.754 144.738 423.688 145.89C422.45 147.244 420.75 147.921 418.589 147.921C416.976 147.921 415.665 147.532 414.656 146.754C413.562 145.948 412.784 144.838 412.323 143.427L415.78 141.784C416.068 142.62 416.399 143.196 416.774 143.513C417.235 143.974 417.854 144.205 418.632 144.205C419.381 144.205 419.957 144.003 420.361 143.599C420.764 143.196 420.966 142.721 420.966 142.173C420.966 141.655 420.779 141.194 420.404 140.79C420.001 140.387 419.396 140.013 418.589 139.667L417.033 138.932C415.823 138.356 414.988 137.837 414.527 137.376C413.662 136.541 413.23 135.518 413.23 134.308C413.23 132.781 413.734 131.485 414.743 130.419C415.838 129.266 417.321 128.69 419.194 128.69C420.49 128.69 421.614 129.007 422.565 129.641C423.429 130.188 424.121 130.937 424.639 131.888ZM427.377 129.165H431.612V147.359H427.377V129.165ZM427.55 123.591C427.031 123.072 426.772 122.424 426.772 121.646C426.772 120.868 427.031 120.22 427.55 119.701C428.068 119.183 428.717 118.923 429.495 118.923C430.272 118.923 430.921 119.183 431.439 119.701C431.958 120.22 432.217 120.868 432.217 121.646C432.217 122.424 431.958 123.072 431.439 123.591C430.921 124.109 430.272 124.369 429.495 124.369C428.717 124.369 428.068 124.109 427.55 123.591ZM448.539 131.153V129.165H452.774V145.89C452.774 148.252 452.572 150.168 452.169 151.638C451.766 153.136 450.973 154.375 449.792 155.354C448.207 156.651 446.191 157.299 443.742 157.299C441.264 157.299 439.276 156.55 437.778 155.052C436.309 153.582 435.416 151.695 435.099 149.39H439.204C439.406 150.543 439.852 151.494 440.544 152.243C441.322 153.078 442.417 153.496 443.828 153.496C445.24 153.496 446.349 153.093 447.156 152.286C448.078 151.393 448.539 149.866 448.539 147.705V145.328C447.185 147.057 445.341 147.921 443.007 147.921C440.558 147.921 438.556 147.1 437 145.458C435.185 143.556 434.278 141.151 434.278 138.241C434.278 135.331 435.171 132.983 436.957 131.197C438.599 129.526 440.659 128.69 443.137 128.69C445.355 128.69 447.156 129.511 448.539 131.153ZM443.655 132.493C442.359 132.493 441.293 132.896 440.457 133.703C439.219 134.856 438.599 136.397 438.599 138.327C438.599 140.315 439.204 141.842 440.414 142.908C441.336 143.715 442.417 144.118 443.655 144.118C445.067 144.118 446.248 143.628 447.199 142.649C448.265 141.496 448.798 140.07 448.798 138.37C448.798 136.411 448.222 134.884 447.069 133.79C446.205 132.925 445.067 132.493 443.655 132.493ZM456.373 147.359V129.165H460.608V130.851C461.904 129.41 463.546 128.69 465.534 128.69C467.926 128.69 469.712 129.511 470.893 131.153C471.642 132.219 472.017 133.905 472.017 136.21V147.359H467.782V137.247C467.782 136.152 467.695 135.259 467.522 134.567C467.349 133.876 467.076 133.401 466.701 133.141C466.327 132.853 465.981 132.68 465.664 132.623C465.376 132.536 464.973 132.493 464.454 132.493C463.849 132.493 463.359 132.551 462.985 132.666C462.639 132.752 462.25 132.983 461.818 133.357C461.414 133.703 461.112 134.323 460.91 135.216C460.709 136.08 460.608 137.218 460.608 138.63V147.359H456.373ZM237.31 172.987V177.74C235.783 176.242 234.069 175.493 232.168 175.493C230.554 175.493 229.215 176.026 228.149 177.092C227.111 178.129 226.593 179.527 226.593 181.284C226.593 183.099 227.14 184.554 228.235 185.649C229.272 186.628 230.554 187.118 232.081 187.118C234.184 187.118 235.927 186.34 237.31 184.784V189.495C235.783 190.446 233.939 190.921 231.779 190.921C228.869 190.921 226.564 190.028 224.864 188.242C223.136 186.455 222.271 184.179 222.271 181.414C222.271 178.561 223.193 176.213 225.037 174.369C226.823 172.583 229.258 171.69 232.34 171.69C234.098 171.69 235.755 172.122 237.31 172.987ZM241.456 174.413C243.328 172.598 245.648 171.69 248.413 171.69C251.179 171.69 253.484 172.598 255.328 174.413C257.201 176.199 258.137 178.489 258.137 181.284C258.137 184.05 257.201 186.355 255.328 188.198C253.484 190.014 251.179 190.921 248.413 190.921C245.648 190.921 243.328 190.014 241.456 188.198C239.612 186.355 238.69 184.05 238.69 181.284C238.69 178.489 239.612 176.199 241.456 174.413ZM244.481 185.562C245.46 186.599 246.771 187.118 248.413 187.118C250.056 187.118 251.366 186.599 252.346 185.562C253.326 184.496 253.815 183.085 253.815 181.327C253.815 179.397 253.282 177.942 252.216 176.962C251.179 175.983 249.911 175.493 248.413 175.493C246.915 175.493 245.633 175.983 244.567 176.962C243.53 177.942 243.011 179.397 243.011 181.327C243.011 183.085 243.501 184.496 244.481 185.562ZM260.828 172.165H265.063V182.58C265.063 184.107 265.322 185.202 265.841 185.865C266.475 186.7 267.397 187.118 268.607 187.118C269.817 187.118 270.739 186.7 271.373 185.865C271.891 185.202 272.151 184.107 272.151 182.58V172.165H276.386V182.71C276.386 185.389 275.737 187.377 274.441 188.674C272.943 190.172 270.969 190.921 268.52 190.921C266.158 190.921 264.242 190.172 262.773 188.674C261.476 187.377 260.828 185.389 260.828 182.71V172.165ZM280.032 190.359V172.165H284.267V173.808C284.814 173.174 285.405 172.67 286.039 172.295C286.73 171.892 287.595 171.69 288.632 171.69C289.871 171.69 290.98 171.978 291.959 172.554L290.231 176.401C289.539 175.968 288.819 175.752 288.07 175.752C286.946 175.752 286.068 176.084 285.434 176.746C284.656 177.582 284.267 178.979 284.267 180.938V190.359H280.032ZM302.915 174.888L299.76 176.962C299.126 175.925 298.262 175.407 297.167 175.407C296.62 175.407 296.187 175.565 295.87 175.882C295.611 176.141 295.482 176.458 295.482 176.833C295.482 177.265 295.683 177.611 296.087 177.87C296.173 177.928 296.259 177.985 296.346 178.043C296.432 178.072 296.591 178.144 296.821 178.259C297.052 178.374 297.282 178.489 297.513 178.605L299.673 179.685C300.883 180.29 301.733 180.852 302.223 181.37C303.116 182.264 303.563 183.387 303.563 184.741C303.563 186.355 303.03 187.738 301.964 188.89C300.725 190.244 299.025 190.921 296.864 190.921C295.251 190.921 293.94 190.532 292.932 189.754C291.837 188.948 291.059 187.838 290.598 186.427L294.055 184.784C294.344 185.62 294.675 186.196 295.049 186.513C295.51 186.974 296.13 187.205 296.908 187.205C297.657 187.205 298.233 187.003 298.636 186.599C299.04 186.196 299.241 185.721 299.241 185.173C299.241 184.655 299.054 184.194 298.679 183.79C298.276 183.387 297.671 183.013 296.864 182.667L295.309 181.932C294.099 181.356 293.263 180.837 292.802 180.376C291.938 179.541 291.506 178.518 291.506 177.308C291.506 175.781 292.01 174.485 293.018 173.419C294.113 172.266 295.597 171.69 297.469 171.69C298.766 171.69 299.89 172.007 300.84 172.641C301.705 173.188 302.396 173.937 302.915 174.888ZM318.401 184.223L321.945 186.211C321.138 187.651 320.115 188.76 318.876 189.538C317.465 190.46 315.678 190.921 313.518 190.921C310.982 190.921 308.937 190.143 307.381 188.587C305.595 186.801 304.702 184.482 304.702 181.63C304.702 178.633 305.667 176.141 307.597 174.153C309.239 172.511 311.27 171.69 313.691 171.69C316.053 171.69 317.998 172.482 319.525 174.067C321.224 175.824 322.074 178.389 322.074 181.759V182.278H309.023C309.138 183.805 309.657 185.029 310.579 185.951C311.357 186.729 312.437 187.118 313.82 187.118C314.944 187.118 315.909 186.816 316.716 186.211C317.378 185.692 317.94 185.029 318.401 184.223ZM309.326 178.821H317.753C317.58 177.812 317.148 176.991 316.456 176.357C315.707 175.666 314.757 175.32 313.604 175.32C312.394 175.32 311.4 175.709 310.622 176.487C309.988 177.063 309.556 177.841 309.326 178.821ZM337.365 188.242V200.256H333.13V172.165H337.365V174.153C338.748 172.511 340.548 171.69 342.767 171.69C345.245 171.69 347.333 172.569 349.033 174.326C350.762 176.055 351.626 178.331 351.626 181.154C351.626 184.064 350.733 186.427 348.947 188.242C347.16 190.028 345.115 190.921 342.81 190.921C340.649 190.921 338.834 190.028 337.365 188.242ZM342.248 175.493C340.808 175.493 339.583 176.012 338.575 177.049C337.595 178.057 337.106 179.498 337.106 181.37C337.106 183.185 337.595 184.597 338.575 185.606C339.583 186.614 340.808 187.118 342.248 187.118C343.746 187.118 344.956 186.556 345.878 185.433C346.829 184.309 347.305 182.941 347.305 181.327C347.305 179.685 346.829 178.302 345.878 177.178C344.956 176.055 343.746 175.493 342.248 175.493ZM354.317 190.359V172.165H358.552V173.808C359.1 173.174 359.69 172.67 360.324 172.295C361.016 171.892 361.88 171.69 362.917 171.69C364.156 171.69 365.265 171.978 366.245 172.554L364.516 176.401C363.825 175.968 363.104 175.752 362.355 175.752C361.232 175.752 360.353 176.084 359.719 176.746C358.941 177.582 358.552 178.979 358.552 180.938V190.359H354.317ZM367.909 174.413C369.781 172.598 372.1 171.69 374.866 171.69C377.632 171.69 379.937 172.598 381.781 174.413C383.653 176.199 384.59 178.489 384.59 181.284C384.59 184.05 383.653 186.355 381.781 188.198C379.937 190.014 377.632 190.921 374.866 190.921C372.1 190.921 369.781 190.014 367.909 188.198C366.065 186.355 365.143 184.05 365.143 181.284C365.143 178.489 366.065 176.199 367.909 174.413ZM370.934 185.562C371.913 186.599 373.224 187.118 374.866 187.118C376.508 187.118 377.819 186.599 378.799 185.562C379.778 184.496 380.268 183.085 380.268 181.327C380.268 179.397 379.735 177.942 378.669 176.962C377.632 175.983 376.364 175.493 374.866 175.493C373.368 175.493 372.086 175.983 371.02 176.962C369.983 177.942 369.464 179.397 369.464 181.327C369.464 183.085 369.954 184.496 370.934 185.562ZM387.281 172.165H391.516V200.256H387.281V172.165ZM387.454 166.591C386.935 166.072 386.676 165.424 386.676 164.646C386.676 163.868 386.935 163.22 387.454 162.701C387.972 162.183 388.621 161.923 389.399 161.923C390.176 161.923 390.825 162.183 391.343 162.701C391.862 163.22 392.121 163.868 392.121 164.646C392.121 165.424 391.862 166.072 391.343 166.591C390.825 167.109 390.176 167.369 389.399 167.369C388.621 167.369 387.972 167.109 387.454 166.591ZM407.881 184.223L411.425 186.211C410.618 187.651 409.595 188.76 408.356 189.538C406.945 190.46 405.158 190.921 402.998 190.921C400.462 190.921 398.417 190.143 396.861 188.587C395.075 186.801 394.182 184.482 394.182 181.63C394.182 178.633 395.147 176.141 397.077 174.153C398.719 172.511 400.75 171.69 403.17 171.69C405.533 171.69 407.478 172.482 409.005 174.067C410.704 175.824 411.554 178.389 411.554 181.759V182.278H398.503C398.618 183.805 399.137 185.029 400.059 185.951C400.837 186.729 401.917 187.118 403.3 187.118C404.424 187.118 405.389 186.816 406.196 186.211C406.858 185.692 407.42 185.029 407.881 184.223ZM398.806 178.821H407.233C407.06 177.812 406.628 176.991 405.936 176.357C405.187 175.666 404.236 175.32 403.084 175.32C401.874 175.32 400.88 175.709 400.102 176.487C399.468 177.063 399.036 177.841 398.806 178.821ZM428.34 172.987V177.74C426.813 176.242 425.099 175.493 423.198 175.493C421.584 175.493 420.244 176.026 419.178 177.092C418.141 178.129 417.623 179.527 417.623 181.284C417.623 183.099 418.17 184.554 419.265 185.649C420.302 186.628 421.584 187.118 423.111 187.118C425.214 187.118 426.957 186.34 428.34 184.784V189.495C426.813 190.446 424.969 190.921 422.809 190.921C419.899 190.921 417.594 190.028 415.894 188.242C414.165 186.455 413.301 184.179 413.301 181.414C413.301 178.561 414.223 176.213 416.067 174.369C417.853 172.583 420.288 171.69 423.37 171.69C425.128 171.69 426.784 172.122 428.34 172.987ZM438.276 176.055H435.035V190.359H430.8V176.055H429.028V172.165H430.8V165.51H435.035V172.165H438.276V176.055Z" fill="white"/>
<defs>
<linearGradient id="paint0_linear_303_275" x1="13.7119" y1="8.22201" x2="524.582" y2="437.649" gradientUnits="userSpaceOnUse">
<stop stop-color="#4286EF"/>
<stop offset="0.336458" stop-color="#3E8FC6"/>
<stop offset="0.685417" stop-color="#3C96A7"/>
<stop offset="1" stop-color="#37A077"/>
</linearGradient>
</defs>
</svg>
