<svg width="595" height="309" viewBox="0 0 595 309" fill="none" xmlns="http://www.w3.org/2000/svg">
<path d="M0 20.0058C0 8.95691 8.9569 0 20.0058 0H574.875C585.924 0 594.88 8.9569 594.88 20.0058V309H0V20.0058Z" fill="url(#paint0_linear_222_10)"/>
<path d="M171.071 136.356V132.294H182.955V132.51C182.955 137.523 181.529 141.413 178.677 144.179C176.142 146.627 172.872 147.852 168.867 147.852C164.862 147.852 161.592 146.541 159.057 143.919C156.205 140.981 154.779 137.35 154.779 133.029C154.779 130.868 155.168 128.851 155.945 126.979C156.723 125.077 157.732 123.507 158.971 122.268C160.267 120.972 161.852 119.935 163.724 119.157C165.626 118.35 167.657 117.947 169.818 117.947C172.67 117.947 175.176 118.552 177.337 119.762C179.325 120.885 180.881 122.326 182.004 124.083L178.504 126.547C177.467 125.106 176.286 124.011 174.96 123.262C173.549 122.427 171.849 122.009 169.861 122.009C166.778 122.009 164.243 123.003 162.255 124.991C161.304 125.942 160.555 127.137 160.008 128.578C159.46 130.018 159.187 131.516 159.187 133.072C159.187 136.155 160.181 138.762 162.168 140.894C163.984 142.824 166.389 143.79 169.385 143.79C171.95 143.79 174.096 142.94 175.825 141.24C177.236 139.857 178.043 138.229 178.245 136.356H171.071ZM187.797 131.343C189.67 129.528 191.989 128.621 194.755 128.621C197.521 128.621 199.826 129.528 201.67 131.343C203.542 133.13 204.479 135.42 204.479 138.215C204.479 140.981 203.542 143.285 201.67 145.129C199.826 146.944 197.521 147.852 194.755 147.852C191.989 147.852 189.67 146.944 187.797 145.129C185.953 143.285 185.032 140.981 185.032 138.215C185.032 135.42 185.953 133.13 187.797 131.343ZM190.822 142.493C191.802 143.53 193.113 144.049 194.755 144.049C196.397 144.049 197.708 143.53 198.688 142.493C199.667 141.427 200.157 140.015 200.157 138.258C200.157 136.328 199.624 134.873 198.558 133.893C197.521 132.914 196.253 132.424 194.755 132.424C193.257 132.424 191.975 132.914 190.909 133.893C189.872 134.873 189.353 136.328 189.353 138.258C189.353 140.015 189.843 141.427 190.822 142.493ZM208.985 131.343C210.857 129.528 213.177 128.621 215.943 128.621C218.708 128.621 221.013 129.528 222.857 131.343C224.73 133.13 225.666 135.42 225.666 138.215C225.666 140.981 224.73 143.285 222.857 145.129C221.013 146.944 218.708 147.852 215.943 147.852C213.177 147.852 210.857 146.944 208.985 145.129C207.141 143.285 206.219 140.981 206.219 138.215C206.219 135.42 207.141 133.13 208.985 131.343ZM212.01 142.493C212.989 143.53 214.3 144.049 215.943 144.049C217.585 144.049 218.896 143.53 219.875 142.493C220.855 141.427 221.344 140.015 221.344 138.258C221.344 136.328 220.811 134.873 219.746 133.893C218.708 132.914 217.441 132.424 215.943 132.424C214.444 132.424 213.162 132.914 212.096 133.893C211.059 134.873 210.541 136.328 210.541 138.258C210.541 140.015 211.03 141.427 212.01 142.493ZM241.668 131.084V129.096H245.903V145.821C245.903 148.183 245.701 150.099 245.298 151.568C244.894 153.067 244.102 154.305 242.921 155.285C241.336 156.581 239.32 157.23 236.871 157.23C234.393 157.23 232.405 156.481 230.907 154.982C229.438 153.513 228.544 151.626 228.228 149.321H232.333C232.535 150.474 232.981 151.424 233.673 152.173C234.451 153.009 235.545 153.427 236.957 153.427C238.369 153.427 239.478 153.023 240.285 152.217C241.207 151.323 241.668 149.797 241.668 147.636V145.259C240.314 146.988 238.47 147.852 236.136 147.852C233.687 147.852 231.685 147.031 230.129 145.389C228.314 143.487 227.406 141.081 227.406 138.172C227.406 135.262 228.3 132.914 230.086 131.127C231.728 129.456 233.788 128.621 236.266 128.621C238.484 128.621 240.285 129.442 241.668 131.084ZM236.784 132.424C235.488 132.424 234.422 132.827 233.586 133.634C232.347 134.786 231.728 136.328 231.728 138.258C231.728 140.246 232.333 141.773 233.543 142.839C234.465 143.646 235.545 144.049 236.784 144.049C238.196 144.049 239.377 143.559 240.328 142.58C241.394 141.427 241.927 140.001 241.927 138.301C241.927 136.342 241.351 134.815 240.198 133.72C239.334 132.856 238.196 132.424 236.784 132.424ZM249.545 115.786H253.78V147.29H249.545V115.786ZM270.145 141.153L273.688 143.141C272.882 144.582 271.859 145.691 270.62 146.469C269.208 147.391 267.422 147.852 265.261 147.852C262.726 147.852 260.68 147.074 259.125 145.518C257.338 143.732 256.445 141.413 256.445 138.56C256.445 135.564 257.411 133.072 259.341 131.084C260.983 129.442 263.014 128.621 265.434 128.621C267.797 128.621 269.741 129.413 271.268 130.998C272.968 132.755 273.818 135.319 273.818 138.69V139.209H260.767C260.882 140.736 261.401 141.96 262.323 142.882C263.101 143.66 264.181 144.049 265.564 144.049C266.687 144.049 267.653 143.746 268.459 143.141C269.122 142.623 269.684 141.96 270.145 141.153ZM261.069 135.751H269.496C269.324 134.743 268.891 133.922 268.2 133.288C267.451 132.597 266.5 132.251 265.348 132.251C264.138 132.251 263.144 132.64 262.366 133.418C261.732 133.994 261.3 134.772 261.069 135.751ZM285.651 118.465H290.059V135.838C290.059 138.085 290.362 139.742 290.967 140.808C291.457 141.614 292.177 142.32 293.128 142.925C294.078 143.501 295.144 143.79 296.326 143.79C297.507 143.79 298.573 143.501 299.524 142.925C300.474 142.32 301.195 141.614 301.684 140.808C302.289 139.742 302.592 138.085 302.592 135.838V118.465H307V137.005C307 140.03 306.107 142.522 304.32 144.481C302.246 146.728 299.581 147.852 296.326 147.852C293.07 147.852 290.405 146.728 288.331 144.481C286.544 142.522 285.651 140.03 285.651 137.005V118.465ZM309.173 147.29L318.249 132.251L310.297 118.465H315.224L320.842 128.232L326.589 118.465H331.516L323.219 132.251L331.905 147.29H326.978L320.669 136.27L314.1 147.29H309.173ZM354.952 131.214V115.786H359.187V147.29H354.952V145.389C353.54 147.031 351.725 147.852 349.506 147.852C346.827 147.852 344.681 146.901 343.067 145C341.483 143.098 340.69 140.822 340.69 138.172C340.69 135.291 341.54 132.986 343.24 131.257C344.969 129.5 347.072 128.621 349.55 128.621C351.826 128.621 353.626 129.485 354.952 131.214ZM350.068 132.424C348.57 132.424 347.346 132.986 346.395 134.109C345.473 135.233 345.012 136.616 345.012 138.258C345.012 139.871 345.473 141.24 346.395 142.363C347.346 143.487 348.57 144.049 350.068 144.049C351.509 144.049 352.719 143.545 353.698 142.536C354.707 141.528 355.211 140.116 355.211 138.301C355.211 136.429 354.707 134.988 353.698 133.98C352.719 132.942 351.509 132.424 350.068 132.424ZM375.577 141.153L379.121 143.141C378.314 144.582 377.292 145.691 376.053 146.469C374.641 147.391 372.855 147.852 370.694 147.852C368.159 147.852 366.113 147.074 364.557 145.518C362.771 143.732 361.878 141.413 361.878 138.56C361.878 135.564 362.843 133.072 364.773 131.084C366.416 129.442 368.447 128.621 370.867 128.621C373.229 128.621 375.174 129.413 376.701 130.998C378.401 132.755 379.251 135.319 379.251 138.69V139.209H366.2C366.315 140.736 366.833 141.96 367.755 142.882C368.533 143.66 369.614 144.049 370.996 144.049C372.12 144.049 373.085 143.746 373.892 143.141C374.555 142.623 375.116 141.96 375.577 141.153ZM366.502 135.751H374.929C374.756 134.743 374.324 133.922 373.633 133.288C372.884 132.597 371.933 132.251 370.78 132.251C369.57 132.251 368.576 132.64 367.799 133.418C367.165 133.994 366.733 134.772 366.502 135.751ZM393.055 131.819L389.9 133.893C389.266 132.856 388.402 132.337 387.307 132.337C386.76 132.337 386.327 132.496 386.01 132.813C385.751 133.072 385.622 133.389 385.622 133.764C385.622 134.196 385.823 134.541 386.227 134.801C386.313 134.858 386.399 134.916 386.486 134.974C386.572 135.002 386.731 135.074 386.961 135.19C387.192 135.305 387.422 135.42 387.653 135.535L389.813 136.616C391.024 137.221 391.873 137.783 392.363 138.301C393.256 139.194 393.703 140.318 393.703 141.672C393.703 143.285 393.17 144.668 392.104 145.821C390.865 147.175 389.165 147.852 387.004 147.852C385.391 147.852 384.08 147.463 383.072 146.685C381.977 145.878 381.199 144.769 380.738 143.357L384.195 141.715C384.484 142.551 384.815 143.127 385.189 143.444C385.65 143.905 386.27 144.135 387.048 144.135C387.797 144.135 388.373 143.934 388.776 143.53C389.18 143.127 389.381 142.652 389.381 142.104C389.381 141.586 389.194 141.125 388.82 140.721C388.416 140.318 387.811 139.943 387.004 139.598L385.449 138.863C384.239 138.287 383.403 137.768 382.942 137.307C382.078 136.472 381.646 135.449 381.646 134.239C381.646 132.712 382.15 131.416 383.158 130.35C384.253 129.197 385.737 128.621 387.609 128.621C388.906 128.621 390.03 128.938 390.98 129.572C391.845 130.119 392.536 130.868 393.055 131.819ZM395.792 129.096H400.028V147.29H395.792V129.096ZM395.965 123.521C395.447 123.003 395.187 122.355 395.187 121.577C395.187 120.799 395.447 120.151 395.965 119.632C396.484 119.113 397.132 118.854 397.91 118.854C398.688 118.854 399.336 119.113 399.855 119.632C400.373 120.151 400.633 120.799 400.633 121.577C400.633 122.355 400.373 123.003 399.855 123.521C399.336 124.04 398.688 124.299 397.91 124.299C397.132 124.299 396.484 124.04 395.965 123.521ZM416.954 131.084V129.096H421.189V145.821C421.189 148.183 420.988 150.099 420.584 151.568C420.181 153.067 419.389 154.305 418.208 155.285C416.623 156.581 414.606 157.23 412.157 157.23C409.68 157.23 407.692 156.481 406.194 154.982C404.724 153.513 403.831 151.626 403.514 149.321H407.62C407.821 150.474 408.268 151.424 408.959 152.173C409.737 153.009 410.832 153.427 412.244 153.427C413.655 153.427 414.765 153.023 415.571 152.217C416.493 151.323 416.954 149.797 416.954 147.636V145.259C415.6 146.988 413.756 147.852 411.423 147.852C408.974 147.852 406.971 147.031 405.416 145.389C403.601 143.487 402.693 141.081 402.693 138.172C402.693 135.262 403.586 132.914 405.372 131.127C407.015 129.456 409.075 128.621 411.552 128.621C413.771 128.621 415.571 129.442 416.954 131.084ZM412.071 132.424C410.774 132.424 409.708 132.827 408.873 133.634C407.634 134.786 407.015 136.328 407.015 138.258C407.015 140.246 407.62 141.773 408.83 142.839C409.752 143.646 410.832 144.049 412.071 144.049C413.483 144.049 414.664 143.559 415.615 142.58C416.681 141.427 417.214 140.001 417.214 138.301C417.214 136.342 416.637 134.815 415.485 133.72C414.621 132.856 413.483 132.424 412.071 132.424ZM424.788 147.29V129.096H429.023V130.782C430.32 129.341 431.962 128.621 433.95 128.621C436.341 128.621 438.127 129.442 439.309 131.084C440.058 132.15 440.432 133.836 440.432 136.14V147.29H436.197V137.178C436.197 136.083 436.111 135.19 435.938 134.498C435.765 133.807 435.491 133.331 435.117 133.072C434.742 132.784 434.396 132.611 434.079 132.554C433.791 132.467 433.388 132.424 432.869 132.424C432.264 132.424 431.775 132.481 431.4 132.597C431.054 132.683 430.665 132.914 430.233 133.288C429.83 133.634 429.527 134.253 429.326 135.146C429.124 136.011 429.023 137.149 429.023 138.56V147.29H424.788ZM205.726 172.917V177.671C204.199 176.173 202.485 175.424 200.583 175.424C198.97 175.424 197.63 175.957 196.564 177.023C195.527 178.06 195.008 179.457 195.008 181.215C195.008 183.03 195.556 184.485 196.65 185.58C197.688 186.559 198.97 187.049 200.497 187.049C202.6 187.049 204.343 186.271 205.726 184.715V189.426C204.199 190.376 202.355 190.852 200.194 190.852C197.284 190.852 194.979 189.959 193.28 188.172C191.551 186.386 190.687 184.11 190.687 181.344C190.687 178.492 191.609 176.144 193.453 174.3C195.239 172.514 197.673 171.621 200.756 171.621C202.513 171.621 204.17 172.053 205.726 172.917ZM209.871 174.343C211.744 172.528 214.063 171.621 216.829 171.621C219.595 171.621 221.899 172.528 223.743 174.343C225.616 176.13 226.552 178.42 226.552 181.215C226.552 183.981 225.616 186.285 223.743 188.129C221.899 189.944 219.595 190.852 216.829 190.852C214.063 190.852 211.744 189.944 209.871 188.129C208.027 186.285 207.105 183.981 207.105 181.215C207.105 178.42 208.027 176.13 209.871 174.343ZM212.896 185.493C213.876 186.53 215.187 187.049 216.829 187.049C218.471 187.049 219.782 186.53 220.761 185.493C221.741 184.427 222.231 183.015 222.231 181.258C222.231 179.328 221.698 177.873 220.632 176.893C219.595 175.914 218.327 175.424 216.829 175.424C215.331 175.424 214.049 175.914 212.983 176.893C211.945 177.873 211.427 179.328 211.427 181.258C211.427 183.015 211.917 184.427 212.896 185.493ZM229.243 172.096H233.479V182.511C233.479 184.038 233.738 185.133 234.256 185.796C234.89 186.631 235.812 187.049 237.022 187.049C238.232 187.049 239.154 186.631 239.788 185.796C240.307 185.133 240.566 184.038 240.566 182.511V172.096H244.801V182.641C244.801 185.32 244.153 187.308 242.856 188.605C241.358 190.103 239.385 190.852 236.936 190.852C234.573 190.852 232.658 190.103 231.188 188.605C229.892 187.308 229.243 185.32 229.243 182.641V172.096ZM248.447 190.29V172.096H252.683V173.738C253.23 173.105 253.821 172.6 254.454 172.226C255.146 171.823 256.01 171.621 257.047 171.621C258.286 171.621 259.395 171.909 260.375 172.485L258.646 176.331C257.955 175.899 257.235 175.683 256.486 175.683C255.362 175.683 254.483 176.014 253.849 176.677C253.072 177.513 252.683 178.91 252.683 180.869V190.29H248.447ZM271.33 174.819L268.175 176.893C267.542 175.856 266.677 175.337 265.582 175.337C265.035 175.337 264.603 175.496 264.286 175.813C264.027 176.072 263.897 176.389 263.897 176.764C263.897 177.196 264.099 177.541 264.502 177.801C264.588 177.858 264.675 177.916 264.761 177.974C264.848 178.002 265.006 178.074 265.237 178.19C265.467 178.305 265.698 178.42 265.928 178.535L268.089 179.616C269.299 180.221 270.149 180.783 270.639 181.301C271.532 182.194 271.978 183.318 271.978 184.672C271.978 186.285 271.445 187.668 270.379 188.821C269.141 190.175 267.441 190.852 265.28 190.852C263.667 190.852 262.356 190.463 261.347 189.685C260.252 188.878 259.475 187.769 259.014 186.357L262.471 184.715C262.759 185.551 263.09 186.127 263.465 186.444C263.926 186.905 264.545 187.135 265.323 187.135C266.072 187.135 266.648 186.934 267.052 186.53C267.455 186.127 267.657 185.652 267.657 185.104C267.657 184.586 267.469 184.125 267.095 183.721C266.692 183.318 266.087 182.943 265.28 182.598L263.724 181.863C262.514 181.287 261.679 180.768 261.218 180.307C260.353 179.472 259.921 178.449 259.921 177.239C259.921 175.712 260.425 174.416 261.434 173.35C262.529 172.197 264.012 171.621 265.885 171.621C267.181 171.621 268.305 171.938 269.256 172.572C270.12 173.119 270.812 173.868 271.33 174.819ZM286.816 184.153L290.36 186.141C289.553 187.582 288.531 188.691 287.292 189.469C285.88 190.391 284.094 190.852 281.933 190.852C279.398 190.852 277.352 190.074 275.796 188.518C274.01 186.732 273.117 184.413 273.117 181.56C273.117 178.564 274.082 176.072 276.013 174.084C277.655 172.442 279.686 171.621 282.106 171.621C284.468 171.621 286.413 172.413 287.94 173.998C289.64 175.755 290.49 178.319 290.49 181.69V182.209H277.439C277.554 183.736 278.073 184.96 278.994 185.882C279.772 186.66 280.853 187.049 282.236 187.049C283.359 187.049 284.324 186.746 285.131 186.141C285.794 185.623 286.356 184.96 286.816 184.153ZM277.741 178.751H286.168C285.995 177.743 285.563 176.922 284.872 176.288C284.123 175.597 283.172 175.251 282.02 175.251C280.81 175.251 279.816 175.64 279.038 176.418C278.404 176.994 277.972 177.772 277.741 178.751ZM305.78 188.172V200.186H301.545V172.096H305.78V174.084C307.163 172.442 308.964 171.621 311.182 171.621C313.66 171.621 315.749 172.5 317.449 174.257C319.177 175.986 320.042 178.262 320.042 181.085C320.042 183.995 319.148 186.357 317.362 188.172C315.576 189.959 313.53 190.852 311.226 190.852C309.065 190.852 307.25 189.959 305.78 188.172ZM310.664 175.424C309.223 175.424 307.999 175.942 306.99 176.98C306.011 177.988 305.521 179.429 305.521 181.301C305.521 183.116 306.011 184.528 306.99 185.536C307.999 186.545 309.223 187.049 310.664 187.049C312.162 187.049 313.372 186.487 314.294 185.363C315.245 184.24 315.72 182.871 315.72 181.258C315.72 179.616 315.245 178.233 314.294 177.109C313.372 175.986 312.162 175.424 310.664 175.424ZM322.733 190.29V172.096H326.968V173.738C327.515 173.105 328.106 172.6 328.74 172.226C329.431 171.823 330.295 171.621 331.333 171.621C332.571 171.621 333.681 171.909 334.66 172.485L332.932 176.331C332.24 175.899 331.52 175.683 330.771 175.683C329.647 175.683 328.768 176.014 328.135 176.677C327.357 177.513 326.968 178.91 326.968 180.869V190.29H322.733ZM336.324 174.343C338.197 172.528 340.516 171.621 343.282 171.621C346.048 171.621 348.352 172.528 350.196 174.343C352.069 176.13 353.005 178.42 353.005 181.215C353.005 183.981 352.069 186.285 350.196 188.129C348.352 189.944 346.048 190.852 343.282 190.852C340.516 190.852 338.197 189.944 336.324 188.129C334.48 186.285 333.558 183.981 333.558 181.215C333.558 178.42 334.48 176.13 336.324 174.343ZM339.349 185.493C340.329 186.53 341.64 187.049 343.282 187.049C344.924 187.049 346.235 186.53 347.214 185.493C348.194 184.427 348.684 183.015 348.684 181.258C348.684 179.328 348.151 177.873 347.085 176.893C346.048 175.914 344.78 175.424 343.282 175.424C341.784 175.424 340.502 175.914 339.436 176.893C338.398 177.873 337.88 179.328 337.88 181.258C337.88 183.015 338.37 184.427 339.349 185.493ZM355.696 172.096H359.932V200.186H355.696V172.096ZM355.869 166.521C355.351 166.003 355.091 165.355 355.091 164.577C355.091 163.799 355.351 163.151 355.869 162.632C356.388 162.113 357.036 161.854 357.814 161.854C358.592 161.854 359.24 162.113 359.759 162.632C360.277 163.151 360.537 163.799 360.537 164.577C360.537 165.355 360.277 166.003 359.759 166.521C359.24 167.04 358.592 167.299 357.814 167.299C357.036 167.299 356.388 167.04 355.869 166.521ZM376.296 184.153L379.84 186.141C379.033 187.582 378.011 188.691 376.772 189.469C375.36 190.391 373.574 190.852 371.413 190.852C368.878 190.852 366.832 190.074 365.276 188.518C363.49 186.732 362.597 184.413 362.597 181.56C362.597 178.564 363.562 176.072 365.493 174.084C367.135 172.442 369.166 171.621 371.586 171.621C373.948 171.621 375.893 172.413 377.42 173.998C379.12 175.755 379.97 178.319 379.97 181.69V182.209H366.919C367.034 183.736 367.552 184.96 368.474 185.882C369.252 186.66 370.333 187.049 371.716 187.049C372.839 187.049 373.804 186.746 374.611 186.141C375.274 185.623 375.835 184.96 376.296 184.153ZM367.221 178.751H375.648C375.475 177.743 375.043 176.922 374.352 176.288C373.603 175.597 372.652 175.251 371.5 175.251C370.289 175.251 369.296 175.64 368.518 176.418C367.884 176.994 367.452 177.772 367.221 178.751ZM396.756 172.917V177.671C395.229 176.173 393.514 175.424 391.613 175.424C390 175.424 388.66 175.957 387.594 177.023C386.557 178.06 386.038 179.457 386.038 181.215C386.038 183.03 386.586 184.485 387.68 185.58C388.718 186.559 390 187.049 391.527 187.049C393.63 187.049 395.373 186.271 396.756 184.715V189.426C395.229 190.376 393.385 190.852 391.224 190.852C388.314 190.852 386.009 189.959 384.31 188.172C382.581 186.386 381.717 184.11 381.717 181.344C381.717 178.492 382.639 176.144 384.482 174.3C386.269 172.514 388.703 171.621 391.786 171.621C393.543 171.621 395.2 172.053 396.756 172.917ZM406.692 175.986H403.451V190.29H399.216V175.986H397.444V172.096H399.216V165.441H403.451V172.096H406.692V175.986Z" fill="white"/>
<defs>
<linearGradient id="paint0_linear_222_10" x1="12.3777" y1="8.19548" x2="510.643" y2="387.499" gradientUnits="userSpaceOnUse">
<stop stop-color="#4286EF"/>
<stop offset="0.336458" stop-color="#3E8FC6"/>
<stop offset="0.685417" stop-color="#3C96A7"/>
<stop offset="1" stop-color="#37A077"/>
</linearGradient>
</defs>
</svg>
