<svg width="75" height="75" viewBox="0 0 75 75" fill="none" xmlns="http://www.w3.org/2000/svg">
<circle cx="37.0164" cy="37.0164" r="37.0164" fill="white"/>
<rect width="1.3309" height="20.1615" rx="0.665448" transform="matrix(0.732541 0.680723 -0.678113 0.734958 61.3088 11.8452)" fill="#597084"/>
<path d="M40.9488 28.426C37.0204 30.0251 33.8863 29.0923 32.8104 28.426V30.5627L24.5346 22.2573C21.2724 19.3281 19.0403 23.6703 21.2724 25.2211L31.8489 35.663L29.8229 50.1026H34.9737V61.4406C36.313 63.6806 38.8197 62.3366 39.1631 61.4406V50.1026H44.1767L42.1506 35.663L52.5898 25.0487C54.6845 22.3263 51.0788 19.9484 49.3619 21.9816L40.9488 30.3903V28.426Z" fill="black"/>
<ellipse cx="36.7854" cy="22.2874" rx="5.76899" ry="5.82407" fill="black"/>
<path d="M23.6926 12.2891C20.7131 13.2787 19.0079 14.8235 18.5277 15.4722C17.0244 15.1362 14.4444 16.5161 13.3423 17.2481L16.773 24.4599C17.319 23.4255 20.4159 22.7575 21.896 22.5529C22.9788 20.9779 25.832 19.862 27.1233 19.501L23.6926 12.2891Z" fill="#92B6D8"/>
<path fill-rule="evenodd" clip-rule="evenodd" d="M13.5613 17.3101L16.8029 24.1245C16.9818 23.9282 17.2315 23.7553 17.5134 23.6027C17.9171 23.3841 18.4131 23.1934 18.9323 23.0307C19.9375 22.7158 21.0504 22.4998 21.7979 22.3926C22.3716 21.5966 23.3612 20.9295 24.3522 20.4184C25.2772 19.9413 26.2232 19.5902 26.8804 19.392L23.6024 12.5011C20.7397 13.4826 19.113 14.9693 18.6647 15.5749L18.5983 15.6646L18.4896 15.6403C17.7935 15.4847 16.8162 15.7259 15.8482 16.1193C14.9601 16.4803 14.1131 16.9552 13.5613 17.3101ZM18.4561 15.2827C17.6635 15.1485 16.6499 15.4217 15.7193 15.7999C14.7362 16.1994 13.8055 16.7333 13.2468 17.1044L13.1222 17.1871L16.7643 24.8431L16.924 24.5406C17.0359 24.3285 17.294 24.113 17.6764 23.906C18.0532 23.7019 18.5263 23.5189 19.0346 23.3597C20.0507 23.0414 21.1852 22.825 21.9187 22.7235L21.9936 22.7132L22.0366 22.6507C22.5532 21.8992 23.5058 21.2424 24.5092 20.7249C25.5077 20.2099 26.5328 19.8447 27.1686 19.6669L27.3655 19.6119L23.7815 12.0778L23.6379 12.1255C20.7519 13.084 19.0358 14.5626 18.4561 15.2827Z" fill="white"/>
<path fill-rule="evenodd" clip-rule="evenodd" d="M21.9046 22.9306L18.3836 15.5288L18.6935 15.3804L22.2145 22.7821L21.9046 22.9306Z" fill="white"/>
<path fill-rule="evenodd" clip-rule="evenodd" d="M13.5826 17.753L13.0868 17.9906L12.8389 18.1094L12.9572 18.3582L16.2711 25.3245L16.3895 25.5733L16.6374 25.4545L27.9174 20.0501L28.1653 19.9314L28.0469 19.6826L24.733 12.7162L24.6146 12.4674L24.3667 12.5862L23.9329 12.7941L24.0512 13.0429L24.4851 12.835L27.799 19.8013L16.5191 25.2057L13.2051 18.2394L13.701 18.0018L13.5826 17.753Z" fill="#92B6D8"/>
</svg>
